<svg width="208" height="23" viewBox="0 0 208 23" fill="none" xmlns="http://www.w3.org/2000/svg">
<path d="M51.7819 11.0973C51.7819 4.96842 56.7503 0 62.8791 0H134.747C140.876 0 145.844 4.96842 145.844 11.0973C145.844 17.2261 140.876 22.1945 134.747 22.1945H62.8791C56.7503 22.1945 51.7819 17.2261 51.7819 11.0973Z" fill="#252D44"/>
<path d="M3.29806 7.37524C3.66679 7.37524 4.02028 7.44459 4.35856 7.58328C4.70022 7.71859 5.00636 7.93509 5.27698 8.23277C5.5476 8.52707 5.76072 8.91102 5.91632 9.38461C6.07193 9.85819 6.14973 10.4316 6.14973 11.1047V11.1149C6.14973 11.9403 6.03472 12.6473 5.80469 13.2359C5.57466 13.8211 5.24315 14.271 4.81016 14.5856C4.38055 14.8968 3.86299 15.0524 3.25747 15.0524C2.82448 15.0524 2.43377 14.9729 2.08534 14.8139C1.7403 14.6549 1.45277 14.4351 1.22274 14.1543C0.992712 13.8735 0.837105 13.5505 0.755918 13.1851L0.740696 13.1242H1.87223L1.89253 13.175C1.96018 13.361 2.05828 13.5217 2.18683 13.657C2.31537 13.7923 2.46929 13.8989 2.64857 13.9767C2.82786 14.0511 3.03252 14.0883 3.26255 14.0883C3.67186 14.0883 4.00506 13.9682 4.26215 13.7281C4.52262 13.4845 4.71713 13.1615 4.84568 12.7589C4.97422 12.3564 5.04695 11.9132 5.06387 11.4295C5.06725 11.3787 5.06894 11.3297 5.06894 11.2823C5.06894 11.235 5.06894 11.1893 5.06894 11.1453L4.84568 9.92246C4.84568 9.62478 4.77633 9.35585 4.63764 9.11568C4.50233 8.8755 4.31797 8.68437 4.08456 8.5423C3.85453 8.40022 3.59575 8.32918 3.30821 8.32918C3.02406 8.32918 2.76528 8.39853 2.53187 8.53722C2.30184 8.67592 2.11748 8.86366 1.97879 9.10045C1.84009 9.33386 1.77075 9.59772 1.77075 9.89202V9.90217C1.77075 10.1999 1.83671 10.4654 1.96864 10.6988C2.10057 10.9322 2.28154 11.1166 2.51157 11.2519C2.7416 11.3838 3.00207 11.4498 3.29299 11.4498C3.58729 11.4498 3.85115 11.3838 4.08456 11.2519C4.31797 11.12 4.50233 10.9407 4.63764 10.714C4.77633 10.484 4.84568 10.2218 4.84568 9.92754V9.92246H5.14505V11.257H4.96746C4.87951 11.4532 4.74758 11.6358 4.57167 11.805C4.39577 11.9741 4.17927 12.1111 3.92218 12.216C3.66848 12.3175 3.37587 12.3682 3.04436 12.3682C2.58092 12.3682 2.16822 12.2633 1.80627 12.0536C1.44431 11.8405 1.16016 11.5513 0.95381 11.1859C0.747461 10.8172 0.644287 10.3994 0.644287 9.93261V9.92246C0.644287 9.43196 0.75761 8.99559 0.984255 8.61334C1.21428 8.2277 1.52888 7.92494 1.92805 7.70506C2.33059 7.48518 2.78727 7.37524 3.29806 7.37524Z" fill="white"/>
<path d="M8.19989 13.8701C7.99016 13.8701 7.81256 13.7974 7.66711 13.652C7.52503 13.5065 7.45399 13.3323 7.45399 13.1293C7.45399 12.9196 7.52503 12.7437 7.66711 12.6016C7.81256 12.4595 7.99016 12.3885 8.19989 12.3885C8.413 12.3885 8.5906 12.4595 8.73268 12.6016C8.87475 12.7437 8.94579 12.9196 8.94579 13.1293C8.94579 13.3323 8.87475 13.5065 8.73268 13.652C8.5906 13.7974 8.413 13.8701 8.19989 13.8701ZM8.19989 10.0341C7.99016 10.0341 7.81256 9.96137 7.66711 9.81591C7.52503 9.67045 7.45399 9.49624 7.45399 9.29327C7.45399 9.08354 7.52503 8.90764 7.66711 8.76556C7.81256 8.62348 7.99016 8.55245 8.19989 8.55245C8.413 8.55245 8.5906 8.62348 8.73268 8.76556C8.87475 8.90764 8.94579 9.08354 8.94579 9.29327C8.94579 9.49624 8.87475 9.67045 8.73268 9.81591C8.5906 9.96137 8.413 10.0341 8.19989 10.0341Z" fill="white"/>
<path d="M13.7817 14.8748V13.4236H10.2095V12.4545C10.4023 12.123 10.5985 11.7898 10.7981 11.4549C11.001 11.12 11.204 10.7851 11.407 10.4502C11.6133 10.1153 11.8197 9.78546 12.026 9.46072C12.2323 9.13259 12.4387 8.80954 12.645 8.49156C12.8514 8.17019 13.0544 7.85729 13.2539 7.55284H14.8827V12.4545H15.8925V13.4236H14.8827V14.8748H13.7817ZM11.3055 12.4748H13.7969V8.51693H13.7309C13.5719 8.75372 13.4112 8.99897 13.2489 9.25268C13.0865 9.503 12.9207 9.76009 12.7516 10.0239C12.5858 10.2878 12.4201 10.5533 12.2543 10.8206C12.0886 11.0878 11.9262 11.3551 11.7672 11.6223C11.6082 11.8862 11.4543 12.1466 11.3055 12.4037V12.4748Z" fill="white"/>
<path d="M18.7494 14.8748V8.72497H18.6683L16.8263 10.0392V8.92286L18.7545 7.55284H19.8911V14.8748H18.7494Z" fill="white"/>
<path d="M196.578 9.50977C197.162 9.50977 197.635 9.98282 197.635 10.5664V13.7373C197.635 14.321 197.162 14.7939 196.578 14.7939H194.465C193.881 14.7939 193.408 14.321 193.408 13.7373V10.5664C193.408 9.98282 193.881 9.50977 194.465 9.50977H196.578Z" fill="white"/>
<path fill-rule="evenodd" clip-rule="evenodd" d="M204.189 8.4541C205.24 8.4543 206.092 9.3069 206.092 10.3574V13.9512L206.082 14.1455C205.991 15.0406 205.279 15.7529 204.384 15.8438L204.189 15.8535H194.255L194.061 15.8438C193.165 15.7529 192.454 15.0406 192.362 14.1455L192.353 13.9512V10.3574C192.353 9.3068 193.204 8.45413 194.255 8.4541H204.189ZM194.255 9.08887C193.554 9.08889 192.986 9.65702 192.986 10.3574V13.9512C192.987 14.6512 193.555 15.2187 194.255 15.2188H204.189C204.889 15.2186 205.458 14.6511 205.458 13.9512V10.3574C205.458 9.65712 204.89 9.08907 204.189 9.08887H194.255Z" fill="white"/>
<path d="M206.608 10.126C206.959 10.126 207.242 10.4097 207.242 10.7598V13.5166C207.242 13.8668 206.959 14.1504 206.608 14.1504H206.397V10.126H206.608Z" fill="white"/>
<path d="M179.668 10.5689C179.96 10.5689 180.197 10.8055 180.197 11.0973V15.3249C180.197 15.6167 179.96 15.8533 179.668 15.8533H177.554C177.262 15.8533 177.026 15.6167 177.026 15.3249V11.0973C177.026 10.8055 177.262 10.5689 177.554 10.5689L179.668 10.5689Z" fill="white"/>
<path d="M175.97 13.2111C176.262 13.2111 176.499 13.4477 176.499 13.7396V15.3249C176.499 15.6167 176.262 15.8533 175.97 15.8533L173.856 15.8533C173.565 15.8533 173.328 15.6167 173.328 15.3249L173.328 13.7396C173.328 13.4477 173.565 13.2111 173.856 13.2111H175.97Z" fill="white"/>
<path d="M183.366 8.45435C183.658 8.45435 183.894 8.69094 183.894 8.98279L183.894 15.3241C183.894 15.6159 183.658 15.8525 183.366 15.8525H181.252C180.96 15.8525 180.724 15.6159 180.724 15.3241V8.98279C180.724 8.69094 180.96 8.45435 181.252 8.45435L183.366 8.45435Z" fill="white"/>
</svg>
